<svg t="1711532335099" class="icon" viewBox="0 0 1024 1024" version="1.1" xmlns="http://www.w3.org/2000/svg" p-id="6073" width="200" height="200"><path d="M390.4 905.1c0.4 16-6.4 25.2-20.5 27.5H367c-1.2 0.4-2.2 0.6-2.9 0.6-3.1 0-6.3-1.2-9.4-3.5v17.6c-0.8 6.6-4.5 10.3-11.1 11.1-6.3-0.8-9.8-4.5-10.5-11.1V836c-0.4-10.2 4.5-15 14.6-14.6h28.1c7.4 0.4 11.3 3.9 11.7 10.5 0 4.3-0.4 8.2-1.2 11.7 2.3-5.1 6.1-7.6 11.1-7.6h17c0-0.4-0.2-1.4-0.6-2.9l-1.2-4.1c-1.2-6.6 2.1-11.1 10-13.5 9-0.8 14.4 3.5 16.4 12.9 0.8 2.3 1.4 4.7 1.8 7v0.6h18.8c7 0.8 10.9 4.5 11.7 11.1-0.4 6.6-4.3 10.4-11.7 11.1h-36.9c-0.4 4.7-0.6 9.2-0.6 13.5h28.1c9.8 0.8 14.6 5.7 14.6 14.6 0 3.9-0.2 10.5-0.6 19.9-0.4 9.4-0.8 16-1.2 19.9-0.4 18.4-7.8 27.7-22.3 28.1h-5.9c-3.1 0.4-5.3 0.6-6.4 0.6-9.8 0-14.6-4.7-14.6-14.1 0-6.6 3.9-9.8 11.7-9.4h5.3c6.2 0.8 9.4-3.1 9.4-11.7 0.4-1.2 0.6-4.5 0.6-10 0.4-5.1 0.6-8.6 0.6-10.5 0.4-3.9-1.6-5.7-5.9-5.3h-14.1c0 21.1-6.8 40.8-20.5 59.2-4.7 5.9-10.5 6.6-17.6 2.3-6.3-5.1-7-10.7-2.3-17 11.7-14.4 17.6-31.2 17.6-50.4v-14.1c0.4-7.4 0.6-12.7 0.6-15.8h-1.8c-7.4-0.8-11.3-4.5-11.7-11.1 0 1.6-0.4 3.3-1.2 5.3-2 7.8-3.7 14.1-5.3 18.8-1.6 3.1-1 6.1 1.8 8.8 6.3 7.6 9.4 16 9.4 25.3z m-35.7-60.3V911c1.2-0.4 2.3-0.6 3.5-0.6h3.5c4.3-0.4 6.2-3.5 5.9-9.4 0-4.3-2.2-10-6.4-17-3.5-3.9-4.3-8.8-2.3-14.6 0.8-2.3 2.1-8.2 4.1-17.6 0.8-3.5 1.4-5.7 1.8-6.4 0.4-2.3-0.6-3.3-2.9-2.9H357c-1.5-0.1-2.3 0.7-2.3 2.3zM587.3 816.7c7 2 10 6.6 8.8 14.1-0.4 1.2-1 2.9-1.8 5.3-1.2 2.7-2.7 7-4.7 12.9v99.6c-0.8 7-4.7 10.9-11.7 11.7-6.6-0.8-10.4-4.7-11.1-11.7v-55.7c-3.1 3.1-6.8 3.5-11.1 1.2-3.1-1.6-4.7-4.5-4.7-8.8-0.4-2.3 0.2-5.5 1.8-9.4 7.4-14.8 13.9-31.6 19.3-50.4 2.7-7.1 7.8-10 15.2-8.8z m50.4-2.4c7 0.4 10.9 4.5 11.7 12.3-0.4 4.7-1 12.9-1.8 24.6h29.9c9.4-0.4 13.9 4.3 13.5 14.1 0 12.1-0.6 31.4-1.8 58v2.3c-0.4 18.8-8.4 28.3-24 28.7-2 0.4-8.8 0.6-20.5 0.6-7.4-0.4-11.3-4.1-11.7-11.1 0-7.4 3.5-11.5 10.5-12.3h11.1c7.4 0.8 10.9-2.9 10.5-11.1 1.2-9 1.8-23 1.8-42.2 0-3.5-1.6-5.1-4.7-4.7h-16.4c-0.4 5.9-1 11.1-1.8 15.8 4.3-2 8.2-1 11.7 2.9 1.6 2 3.1 3.9 4.7 5.9 1.2 1.2 2 2.2 2.3 2.9 3.5 5.1 2.9 10-1.8 14.6-5.5 3.9-10.4 3.1-14.6-2.3-0.8-1.6-2.9-4.3-6.4-8.2-4.7 17.6-13.7 33.4-27 47.5-6.3 4.7-12.3 4.5-18.2-0.6-4.7-5.5-4.5-11.3 0.6-17.6 14.8-14.8 23.8-35.2 27-60.9h-19.9c-6.6-0.8-10.4-4.5-11.1-11.1 0.8-6.6 4.5-10.3 11.1-11.1h21.1c0.8-11.7 1.4-19.9 1.8-24.6 0.9-7.5 5-11.6 12.4-12.4z m-17 19.9c3.1 5.1 2.5 9.8-1.8 14.1-5.1 3.1-9.8 2.3-14.1-2.3l-1.2-1.2c-1.2-1.6-2.7-3.9-4.7-7-2.7-4.3-1.8-8.4 2.9-12.3 4.7-2.7 9-2.1 12.9 1.8 2.5 2.3 4.4 4.6 6 6.9z" p-id="6074"></path><path d="M625.5 507.7H512.1c-8.8 0-16-7.2-16-16 0-8.6 6.8-15.7 15.4-16-1.2-2.2-1.8-4.7-1.8-7.3v-85.9c0-4.6 2-8.8 5.1-11.7-3.1-2.9-5.1-7.1-5.1-11.7v-75.6c0-2.7 0.7-5.2 1.8-7.4-8.6-0.2-15.5-7.3-15.5-16 0-8.8 7.2-16 16-16h110.2c16 0 28 11.9 28 27.7 0 15.8-12 27.7-28 27.7h-80.5V343h80.7c16 0 28 11.9 28 27.7 0 15.8-12 27.7-28 27.7h-80.7v53.9h83.9c16 0 28 11.9 28 27.7 0 7.1-2.5 13.8-7.2 18.9-5.3 5.7-12.6 8.8-20.9 8.8z m-3.3-231.5h0.1-0.1z" fill="#3366FF" p-id="6075"></path><path d="M512 706.2c-3.8 0-7.1-0.4-9.9-1.2-54.6-19.6-137.5-60.6-196-113.1-51.6-46.4-77.8-94.8-77.8-144V172.7c0-14 10.4-28.4 23.6-32.7C430 82.7 483.8 65.3 501.8 60c3.1-1.5 6.5-2.2 10.2-2.2h0.1c3.6 0 7 0.8 10.2 2.2 17.8 5.2 71.4 22.5 249.8 80 13.3 4.3 23.7 18.6 23.7 32.7v275.2c0 49.2-26.2 97.6-77.8 144-58.6 52.6-141.4 93.5-194.6 112.6-3.3 1.4-7.6 1.7-11.4 1.7z m-3.9-47.2c-0.7 0.2-1.4 0.4-2.2 0.8 0.7-0.3 1.5-0.5 2.2-0.8z m-20.3-544.4c-47.4 15.2-140.6 45.2-211.6 68v265.3c0 35 20.8 71.4 61.9 108.3 51.6 46.3 124.7 83 173.8 101.3 50.1-18.9 122.5-55.3 173.8-101.4 41-36.8 61.8-73.3 61.8-108.2V182.6c-71-22.9-164.1-52.9-211.6-68-15.3-6.4-32.6-6.4-48.1 0z m269.4 71c0 0.1 0 0.1 0 0 0 0.1 0 0.1 0 0z" fill="#3366FF" p-id="6076"></path><path d="M512.1 507.7H398.6c-16 0-28-11.9-28-27.6 0-15.8 12-27.6 28-27.6h3.3V352c0-24.1 17-27.6 27.2-27.6s27.2 3.6 27.2 27.6v100.4h31V299.5h-85.4c-16 0-28-11.9-28-27.7s12-27.7 28-27.7h110.2c8.8 0 16 7.2 16 16 0 7.1-4.6 13.2-11.1 15.2 1.5 2.4 2.2 5.2 2.2 8.2v184.9c0 3-0.8 5.7-2.2 8.1 6.5 2.1 11.1 8.1 11.1 15.2 0 8.8-7.2 16-16 16z" fill="#3366FF" p-id="6077"></path></svg>